<mxfile host="app.diagrams.net" modified="2024-04-20T14:17:04.023Z" agent="Mozilla/5.0 (Windows NT 10.0; Win64; x64) AppleWebKit/537.36 (KHTML, like Gecko) Chrome/117.0.0.0 Safari/537.36 Edg/117.0.2045.43" version="24.2.7" etag="zW38c1h7k3reBY6PNPRh" type="github">
  <diagram name="PÃ¡gina-1" id="kCTev81q7aybA59EAh-H">
    <mxGraphModel>
      <root>
        <mxCell id="0" />
        <mxCell id="1" parent="0" />
      </root>
    </mxGraphModel>
  </diagram>
</mxfile>
